<?xml version="1.0"?>

<svg width="100px" height="100px" version="1.1" xmlns="http://www.w3.org/2000/svg">

    <path d="M0,50 A25,25,0 1 1 50,50 A25,25,0 1 1 0,50 Z
             M31.4 29.1h-5.9c-5.8 0-10.7 4.4-10.7 13 0 5.1 2.4 8.9 6.6 10.8l-7.9 14.3c-.3.5 0
             .8.4.8h3.7c.3 0 .5-.1.6-.4l7.2-14.1H28v14.1c0 .2.2.4.4.4h3.2c.3 0
             .4-.2.4-.4v-38c0-.3-.2-.5-.6-.5zM28 50.3h-2.2c-3.4 0-6.7-2.5-6.7-8.7 0-6.5 3.1-9.1
             6.3-9.1H28v17.8z"
          transform="scale(2) translate(0,-25)" fill-rule="evenodd" fill="#fff"/>

</svg>